<svg width="235" height="17" viewBox="0 0 235 17" fill="none" xmlns="http://www.w3.org/2000/svg">
<path d="M210.075 5.62722C211.165 5.62632 212.254 5.62542 213.342 5.62542C213.441 5.87443 213.589 6.10089 213.782 6.28314C213.361 6.31292 212.94 6.3418 212.518 6.35804C211.724 6.38781 210.93 6.41847 210.137 6.44914C206.672 6.58357 203.206 6.71802 199.743 6.85065C198.156 6.912 196.57 7.00222 194.984 7.02748C192.506 7.06718 190.026 7.10779 187.547 7.14929C181.883 7.24132 176.218 7.33243 170.555 7.42626C159.558 7.60942 148.562 7.78535 137.566 7.96399C129.692 8.09301 121.82 8.34652 113.948 8.56035C102.087 8.88425 90.2244 9.20816 78.3634 9.53206C75.9861 9.59702 73.6078 9.7531 71.2322 9.87039C64.4995 10.2033 57.7664 10.5344 51.035 10.8683C44.4248 11.194 37.8159 11.5206 31.2057 11.8463C30.5936 11.877 29.9825 11.9067 29.3703 11.9374C31.1516 11.7904 32.9333 11.6433 34.7149 11.5034C40.9354 11.0144 47.1563 10.5236 53.3775 10.0337C55.5499 9.86228 57.7219 9.69178 59.895 9.52126C61.0155 9.43284 62.1389 9.37777 63.2601 9.3065C69.7294 8.9032 76.1981 8.49991 82.6677 8.09571C83.9317 8.01541 85.1974 7.91077 86.4632 7.86024C88.2851 7.78716 90.1079 7.71499 91.9299 7.64191C98.6001 7.37575 105.27 7.1087 111.941 6.84255C113.408 6.7839 114.875 6.72521 116.342 6.66567C116.729 6.65033 117.116 6.64943 117.503 6.64131C118.533 6.62146 119.564 6.5989 120.594 6.57725C127.278 6.4365 133.963 6.29576 140.646 6.15592C143.726 6.09096 146.805 6.01608 149.884 5.98992C159.823 5.90782 169.759 5.80134 179.698 5.75533C189.824 5.70751 199.95 5.63534 210.075 5.62722ZM5.10105 8.52247C6.96347 8.54231 8.82588 8.42864 10.6862 8.36999C11.4438 8.34473 12.201 8.30235 12.9575 8.26356C16.2936 8.09213 19.6297 7.9225 22.9667 7.75108C26.9564 7.54717 30.9456 7.32791 34.9349 7.09965C40.6333 6.77214 46.3317 6.44466 52.0284 6.11715C53.3351 6.04226 54.6418 5.99081 55.9478 5.92855C59.2681 5.76615 62.5872 5.60645 65.9075 5.44585C69.2275 5.28525 72.5479 5.12469 75.8678 4.965C77.1668 4.90184 78.4685 4.82063 79.7675 4.77733C85.0652 4.6041 90.3637 4.43446 95.6605 4.26123C98.9172 4.15748 102.176 4.05103 105.432 3.94457C106.708 3.90397 107.985 3.84171 109.261 3.82276C114.382 3.74697 119.502 3.66396 124.623 3.58456C129.677 3.50697 134.731 3.42939 139.784 3.3509C141.118 3.33105 142.453 3.34005 143.786 3.33464C147.086 3.32201 150.385 3.3085 153.683 3.29587C158.813 3.27512 163.942 3.25977 169.074 3.2345C170.751 3.22548 172.429 3.24623 174.107 3.25164C177.618 3.26427 181.131 3.2778 184.644 3.28953C184.935 3.29133 185.225 3.29314 185.516 3.29495C177.609 3.40412 169.702 3.51421 161.795 3.63601C158.493 3.68654 155.191 3.73616 151.889 3.78668C150.465 3.80833 149.038 3.81372 147.615 3.85162C142.838 3.97973 138.06 4.11867 133.285 4.2522C127.763 4.40558 122.242 4.55897 116.72 4.71235C115.792 4.73851 114.865 4.79266 113.938 4.83777C110.998 4.97762 108.058 5.11657 105.117 5.25642C99.1537 5.53882 93.1903 5.82389 87.2252 6.10539C86.3423 6.14779 85.4611 6.21186 84.5799 6.27411C81.6665 6.48072 78.7532 6.68735 75.8407 6.89576C70.6228 7.26658 65.4049 7.63468 60.1882 8.0091C58.7498 8.11196 57.3127 8.25723 55.8756 8.38264C52.5344 8.67225 49.1938 8.96186 45.8527 9.25147C41.606 9.61958 37.3581 9.97509 33.1129 10.3576C27.2031 10.8881 21.2949 11.4186 15.3872 11.9519C13.9696 12.08 12.5524 12.2063 11.1348 12.3344C8.59455 12.5627 6.06222 12.8929 3.52717 13.1807C3.25922 13.2105 3.03104 13.39 3.03104 13.6913C3.03104 13.9801 3.25651 14.1903 3.52717 14.2029C4.45339 14.2444 5.3803 14.2868 6.30652 14.3265C6.19256 14.5746 6.12555 14.8453 6.12555 15.1232C6.12555 16.0976 6.95287 17.0594 7.94241 16.9971C15.1877 16.5316 22.4299 16.0263 29.6814 15.67C35.9765 15.3614 42.2726 15.0528 48.567 14.7442C55.5269 14.4032 62.4869 14.0613 69.4471 13.7193C71.6391 13.612 73.8292 13.5046 76.0202 13.3963C76.6518 13.3665 77.286 13.3241 77.9175 13.3079C89.1295 13.0002 100.341 12.7016 111.553 12.3984C117.546 12.2369 123.537 12.0755 129.529 11.9131C131.694 11.8544 133.857 11.8048 136.023 11.7687C147.49 11.5846 158.958 11.4006 170.426 11.2148C175.339 11.1345 180.254 11.0514 185.167 10.9711C189.362 10.9017 193.559 10.8719 197.751 10.7104C201.215 10.575 204.68 10.4397 208.146 10.3053C209.875 10.2385 211.607 10.1952 213.335 10.0834C217.268 9.82802 221.201 9.56996 225.134 9.29839C225.131 9.30381 225.128 9.30921 225.125 9.31372C224.903 9.70439 224.844 10.1781 224.96 10.6139C225.072 11.0352 225.346 11.4006 225.712 11.6208C226.057 11.8292 226.586 11.95 226.974 11.7912C227.831 11.4394 228.685 11.0803 229.535 10.714C229.518 10.7221 229.5 10.7293 229.482 10.7375C229.546 10.7095 229.608 10.6824 229.672 10.6554C229.744 10.6238 229.817 10.5922 229.89 10.5606C229.864 10.5715 229.837 10.5832 229.81 10.5949C230.265 10.3982 230.718 10.2006 231.17 10.0039C231.645 9.80002 232.121 9.59434 232.593 9.38051C233.108 9.14954 233.6 8.86802 234.096 8.59555C234.657 8.28789 235 7.61395 235 6.97246C234.998 6.63232 234.916 6.31744 234.75 6.02331C234.531 5.63626 234.105 5.23927 233.66 5.15897C233.221 5.08047 232.783 5.02003 232.341 4.96139C232.244 4.94966 232.145 4.94425 232.045 4.94425C231.747 4.94425 231.436 4.98755 231.15 5.0083C230.483 5.05702 229.819 5.15897 229.151 5.2095C228.606 5.2501 228.063 5.29069 227.518 5.33038C226.05 5.44046 224.584 5.55054 223.118 5.65881C222.739 5.68678 222.359 5.71022 221.98 5.73639C222.118 5.57489 222.217 5.39084 222.274 5.18153C222.344 5.01551 222.381 4.84138 222.391 4.66094C222.407 4.53282 222.423 4.4038 222.441 4.27568C222.44 4.10877 222.411 3.94999 222.359 3.79752C222.397 3.77947 222.436 3.76323 222.473 3.74518C222.749 3.57646 222.97 3.34998 223.134 3.06397C223.301 2.76804 223.384 2.44868 223.385 2.10583C223.384 1.76299 223.301 1.44539 223.134 1.14946C223.038 1.02135 222.942 0.893227 222.846 0.764208C222.616 0.529629 222.345 0.367212 222.033 0.276087C221.467 0.053236 220.874 0 220.276 0C219.786 0 219.293 0.0360851 218.807 0.0414982C218.103 0.0478134 217.398 0.0559559 216.692 0.0631733C215.694 0.0739994 214.697 0.0884209 213.699 0.0938339C211.064 0.107368 208.427 0.119995 205.792 0.135334C203.312 0.149769 200.832 0.147074 198.353 0.146172C196.099 0.142563 193.845 0.141665 191.592 0.15159C182.608 0.19219 173.625 0.206617 164.642 0.300449C157.905 0.369921 151.169 0.440302 144.433 0.510675C141.421 0.543156 138.411 0.590961 135.4 0.655922C128.65 0.802084 121.899 0.950062 115.149 1.09713C113.224 1.13953 111.299 1.18193 109.374 1.22343C108.258 1.24869 107.141 1.30823 106.025 1.35154C99.3543 1.61228 92.6823 1.87304 86.0112 2.13288C83.9746 2.21318 81.9389 2.29259 79.9024 2.37289C78.7611 2.4153 77.6197 2.4947 76.4784 2.55695C69.8519 2.92416 63.2249 3.29136 56.5983 3.65676C53.177 3.84533 49.7585 4.05825 46.3395 4.2811C40.4855 4.66184 34.6314 5.04348 28.7777 5.42241C23.7058 5.74992 18.6319 6.03412 13.559 6.33998C12.7543 6.38779 11.9505 6.43652 11.1482 6.48434C9.84959 6.56283 8.54874 6.61608 7.24815 6.67562C6.09577 6.72886 4.93655 6.76132 3.78032 6.73065C3.66399 6.42208 3.37213 6.17035 3.03884 6.19742C2.29298 6.25877 1.54878 6.34179 0.804587 6.4239C0.443263 6.4636 0.130116 6.64853 0.0275435 7.03378C-0.0864157 7.45874 0.163314 7.94958 0.590683 8.05514C0.914078 8.13544 1.23598 8.21841 1.56069 8.2951C1.87892 8.36999 2.21493 8.38987 2.53727 8.41964C3.38991 8.49723 4.2464 8.51525 5.10105 8.52247Z" fill="white"/>
</svg>
